<svg data-v-423bf9ae="" xmlns="http://www.w3.org/2000/svg" viewBox="0 0 505 90" class="iconLeft"><!----><!----><!----><g data-v-423bf9ae="" id="a090feda-ef6d-42fb-9755-31cafcdae9af" fill="#000000" transform="matrix(4.728664875030518,0,0,4.728664875030518,111.83004760742188,-18.289798736572266)"><path d="M9.80 9.27L9.80 9.27Q9.93 8.96 9.92 8.72Q9.91 8.48 9.79 8.29Q9.66 8.09 9.44 7.93Q9.21 7.77 8.93 7.62L8.93 7.62Q8.67 7.45 8.41 7.33Q8.15 7.21 7.92 7.18Q7.69 7.14 7.50 7.23Q7.32 7.32 7.21 7.57L7.21 7.57Q6.33 9.79 5.45 12.04Q4.58 14.29 3.65 16.32L3.65 16.32Q3.50 15.30 3.37 14.26Q3.23 13.22 3.12 12.25Q3.01 11.28 2.91 10.42Q2.80 9.55 2.72 8.86L2.72 8.86Q2.59 7.97 1.67 7.63L1.67 7.63Q1.29 7.48 0.95 7.42Q0.60 7.36 0.20 7.36L0.20 7.36Q-0.22 7.36-0.32 7.52Q-0.41 7.67-0.38 8.05L-0.38 8.05Q-0.07 10.92 0.32 13.32Q0.70 15.72 1.19 17.64L1.19 17.64Q1.27 17.98 1.55 18.38Q1.82 18.77 2.34 19.01L2.34 19.01Q2.80 19.24 3.22 19.38Q3.64 19.52 4.13 19.66L4.13 19.66Q4.62 19.78 4.89 19.69Q5.15 19.60 5.35 19.26L5.35 19.26Q5.66 18.69 6.05 17.89Q6.44 17.09 6.87 16.18Q7.31 15.27 7.74 14.31Q8.18 13.34 8.57 12.43Q8.96 11.51 9.28 10.70Q9.60 9.88 9.80 9.27ZM10.36 8.15L10.36 8.15L9.03 17.46Q9.00 17.84 9.13 18.10Q9.27 18.37 9.51 18.56L9.51 18.56Q9.80 18.82 10.02 18.98Q10.23 19.14 10.47 19.29L10.47 19.29Q10.68 19.43 10.97 19.51Q11.26 19.59 11.82 19.45L11.82 19.45Q12.66 19.29 13.58 19.11Q14.50 18.93 15.40 18.76L15.40 18.76Q15.78 18.69 15.85 18.59Q15.92 18.48 15.85 18.20L15.85 18.20Q15.74 17.95 15.64 17.70Q15.55 17.46 15.39 17.18L15.39 17.18Q15.23 16.93 15.02 16.84Q14.80 16.76 14.41 16.79L14.41 16.79Q13.71 16.83 13.11 16.90Q12.52 16.97 11.86 17.08L11.86 17.08Q11.97 16.69 12.07 16.29Q12.17 15.89 12.28 15.44L12.28 15.44Q13.09 15.27 13.96 15.13Q14.84 14.99 15.68 14.84L15.68 14.84Q16.07 14.76 16.16 14.64Q16.25 14.53 16.14 14.21L16.14 14.21Q16.07 13.93 15.98 13.66Q15.89 13.38 15.72 13.10L15.72 13.10Q15.57 12.82 15.34 12.74Q15.12 12.66 14.73 12.67L14.73 12.67Q14.25 12.68 13.83 12.71Q13.41 12.74 12.99 12.80L12.99 12.80Q13.22 12.05 13.40 11.38Q13.58 10.70 13.79 10.07L13.79 10.07Q14.78 9.93 15.68 9.83Q16.58 9.73 17.42 9.63L17.42 9.63Q17.82 9.58 17.93 9.45Q18.05 9.32 17.99 8.96L17.99 8.96Q17.92 8.64 17.85 8.37Q17.78 8.09 17.60 7.76L17.60 7.76Q17.37 7.13 16.58 7.14L16.58 7.14Q15.74 7.17 14.89 7.27Q14.04 7.38 13.24 7.52Q12.43 7.66 11.70 7.83Q10.96 7.99 10.36 8.15ZM26.18 12.63L26.18 12.63Q26.24 12.40 26.28 12.07Q26.33 11.73 26.37 11.37Q26.40 11.00 26.41 10.64Q26.42 10.28 26.40 9.98L26.40 9.98Q26.33 9.42 26.14 8.97Q25.94 8.53 25.47 8.15L25.47 8.15Q25.21 7.94 24.90 7.76Q24.58 7.59 24.23 7.46Q23.87 7.32 23.49 7.22Q23.11 7.13 22.75 7.08L22.75 7.08Q22.50 7.04 22.20 7.04L22.20 7.04Q21.91 7.04 21.61 7.08Q21.31 7.13 21.01 7.24Q20.72 7.35 20.47 7.55L20.47 7.55Q19.68 8.12 19.06 8.93Q18.44 9.74 17.98 10.68Q17.53 11.61 17.26 12.59Q17.00 13.58 16.93 14.53Q16.86 15.48 17.00 16.33Q17.14 17.18 17.50 17.81L17.50 17.81Q17.70 18.20 18.04 18.53Q18.38 18.86 18.75 19.05L18.75 19.05Q19.77 19.50 20.85 19.64L20.85 19.64Q21.46 19.73 22.02 19.64Q22.58 19.54 23.09 19.26L23.09 19.26Q23.87 18.80 24.54 17.95Q25.21 17.09 25.73 15.83L25.73 15.83Q25.86 15.47 25.85 15.22Q25.84 14.97 25.61 14.64L25.61 14.64Q25.48 14.48 25.33 14.28Q25.19 14.08 25.02 13.90L25.02 13.90Q24.77 13.62 24.47 13.54Q24.18 13.47 23.70 13.54L23.70 13.54Q23.30 13.61 22.74 13.67Q22.18 13.73 21.66 13.85L21.66 13.85Q21.38 13.89 21.15 13.92Q20.93 13.96 20.78 14.02Q20.62 14.08 20.56 14.19Q20.50 14.29 20.55 14.48L20.55 14.48Q20.82 15.27 21.27 15.61Q21.73 15.95 22.57 15.90L22.57 15.90Q22.34 16.37 22.09 16.77Q21.84 17.16 21.57 17.44Q21.31 17.72 21.03 17.85Q20.76 17.98 20.51 17.89L20.51 17.89Q20.22 17.79 20.05 17.37Q19.88 16.94 19.85 16.34Q19.82 15.74 19.93 15.03Q20.03 14.32 20.27 13.65L20.27 13.65Q20.54 12.81 20.92 12.03Q21.29 11.26 21.69 10.67Q22.09 10.08 22.48 9.77Q22.86 9.45 23.14 9.53L23.14 9.53Q23.28 9.58 23.33 9.76Q23.38 9.94 23.44 10.21L23.44 10.21Q23.45 10.35 23.46 10.49Q23.48 10.63 23.48 10.78L23.48 10.78Q23.46 10.93 23.47 11.07Q23.48 11.20 23.51 11.34L23.51 11.34Q23.58 12.05 24.03 12.49Q24.49 12.92 25.47 13.06L25.47 13.06Q25.82 13.09 25.95 13.00Q26.08 12.91 26.18 12.63ZM35.46 12.63L35.46 12.63Q35.52 12.40 35.57 12.07Q35.62 11.73 35.65 11.37Q35.69 11.00 35.69 10.64Q35.70 10.28 35.69 9.98L35.69 9.98Q35.62 9.42 35.42 8.97Q35.22 8.53 34.75 8.15L34.75 8.15Q34.50 7.94 34.18 7.76Q33.87 7.59 33.51 7.46Q33.15 7.32 32.77 7.22Q32.40 7.13 32.03 7.08L32.03 7.08Q31.78 7.04 31.49 7.04L31.49 7.04Q31.19 7.04 30.89 7.08Q30.59 7.13 30.30 7.24Q30.00 7.35 29.75 7.55L29.75 7.55Q28.97 8.12 28.34 8.93Q27.72 9.74 27.26 10.68Q26.81 11.61 26.54 12.59Q26.28 13.58 26.21 14.53Q26.14 15.48 26.28 16.33Q26.42 17.18 26.78 17.81L26.78 17.81Q26.98 18.20 27.32 18.53Q27.66 18.86 28.03 19.05L28.03 19.05Q29.05 19.50 30.13 19.64L30.13 19.64Q30.74 19.73 31.30 19.64Q31.86 19.54 32.37 19.26L32.37 19.26Q33.15 18.80 33.82 17.95Q34.50 17.09 35.01 15.83L35.01 15.83Q35.14 15.47 35.13 15.22Q35.13 14.97 34.89 14.64L34.89 14.64Q34.76 14.48 34.61 14.28Q34.47 14.08 34.30 13.90L34.30 13.90Q34.05 13.62 33.75 13.54Q33.46 13.47 32.98 13.54L32.98 13.54Q32.58 13.61 32.02 13.67Q31.46 13.73 30.94 13.85L30.94 13.85Q30.66 13.89 30.44 13.92Q30.21 13.96 30.06 14.02Q29.90 14.08 29.84 14.19Q29.78 14.29 29.83 14.48L29.83 14.48Q30.10 15.27 30.55 15.61Q31.01 15.95 31.85 15.90L31.85 15.90Q31.63 16.37 31.37 16.77Q31.12 17.16 30.86 17.44Q30.59 17.72 30.32 17.85Q30.04 17.98 29.79 17.89L29.79 17.89Q29.50 17.79 29.33 17.37Q29.16 16.94 29.13 16.34Q29.11 15.74 29.21 15.03Q29.32 14.32 29.55 13.65L29.55 13.65Q29.82 12.81 30.20 12.03Q30.58 11.26 30.97 10.67Q31.37 10.08 31.76 9.77Q32.14 9.45 32.42 9.53L32.42 9.53Q32.56 9.58 32.61 9.76Q32.66 9.94 32.72 10.21L32.72 10.21Q32.73 10.35 32.75 10.49Q32.76 10.63 32.76 10.78L32.76 10.78Q32.75 10.93 32.75 11.07Q32.76 11.20 32.79 11.34L32.79 11.34Q32.86 12.05 33.31 12.49Q33.77 12.92 34.75 13.06L34.75 13.06Q35.10 13.09 35.23 13.00Q35.36 12.91 35.46 12.63ZM40.05 8.20L40.05 8.20Q39.68 7.95 39.17 7.73Q38.67 7.50 38.23 7.39L38.23 7.39Q37.80 7.27 37.58 7.36Q37.37 7.45 37.24 7.85L37.24 7.85Q37.09 8.51 36.90 9.39Q36.72 10.26 36.55 11.24Q36.37 12.22 36.20 13.24Q36.04 14.27 35.90 15.19Q35.77 16.11 35.68 16.89Q35.59 17.67 35.56 18.16L35.56 18.16Q35.52 18.52 35.62 18.73Q35.73 18.93 36.05 19.08L36.05 19.08Q36.34 19.24 36.67 19.33Q37.00 19.43 37.37 19.53L37.37 19.53Q37.73 19.61 37.85 19.54Q37.97 19.47 38.04 19.24L38.04 19.24Q38.16 18.61 38.34 17.80Q38.51 17.00 38.72 16.09Q38.93 15.19 39.16 14.25Q39.38 13.30 39.61 12.40Q39.84 11.49 40.07 10.68Q40.31 9.87 40.50 9.24L40.50 9.24Q40.60 8.86 40.52 8.67Q40.45 8.47 40.05 8.20ZM41.37 8.15L41.37 8.15L40.04 17.46Q40.01 17.84 40.14 18.10Q40.28 18.37 40.52 18.56L40.52 18.56Q40.81 18.82 41.03 18.98Q41.24 19.14 41.48 19.29L41.48 19.29Q41.69 19.43 41.98 19.51Q42.27 19.59 42.83 19.45L42.83 19.45Q43.67 19.29 44.59 19.11Q45.51 18.93 46.41 18.76L46.41 18.76Q46.79 18.69 46.86 18.59Q46.93 18.48 46.86 18.20L46.86 18.20Q46.75 17.95 46.66 17.70Q46.56 17.46 46.40 17.18L46.40 17.18Q46.24 16.93 46.02 16.84Q45.81 16.76 45.42 16.79L45.42 16.79Q44.72 16.83 44.12 16.90Q43.53 16.97 42.87 17.08L42.87 17.08Q42.98 16.69 43.08 16.29Q43.18 15.89 43.29 15.44L43.29 15.44Q44.10 15.27 44.98 15.13Q45.85 14.99 46.69 14.84L46.69 14.84Q47.08 14.76 47.17 14.64Q47.26 14.53 47.15 14.21L47.15 14.21Q47.08 13.93 46.99 13.66Q46.90 13.38 46.73 13.10L46.73 13.10Q46.58 12.82 46.35 12.74Q46.13 12.66 45.74 12.67L45.74 12.67Q45.26 12.68 44.84 12.71Q44.42 12.74 44.00 12.80L44.00 12.80Q44.23 12.05 44.41 11.38Q44.59 10.70 44.80 10.07L44.80 10.07Q45.79 9.93 46.69 9.83Q47.59 9.73 48.43 9.63L48.43 9.63Q48.83 9.58 48.94 9.45Q49.06 9.32 49 8.96L49 8.96Q48.93 8.64 48.86 8.37Q48.79 8.09 48.61 7.76L48.61 7.76Q48.38 7.13 47.59 7.14L47.59 7.14Q46.75 7.17 45.90 7.27Q45.05 7.38 44.25 7.52Q43.44 7.66 42.71 7.83Q41.97 7.99 41.37 8.15ZM60.65 13.96L60.65 13.96Q61.12 13.72 61.47 13.46Q61.82 13.20 62.16 12.95L62.16 12.95Q62.47 12.68 62.73 12.38Q63 12.08 63.18 11.73Q63.36 11.38 63.44 11.00Q63.52 10.63 63.45 10.22L63.45 10.22Q63.29 9.48 62.96 8.92Q62.64 8.36 62.15 7.87L62.15 7.87Q61.77 7.50 61.18 7.31Q60.59 7.13 59.88 7.08Q59.18 7.04 58.39 7.13Q57.61 7.21 56.85 7.39Q56.08 7.57 55.38 7.83Q54.68 8.08 54.15 8.37L54.15 8.37Q54.12 9.45 54.02 10.65Q53.91 11.84 53.78 13.03Q53.65 14.21 53.54 15.31Q53.42 16.41 53.38 17.28L53.38 17.28Q53.35 17.54 53.38 17.71Q53.41 17.88 53.48 18.01Q53.55 18.14 53.67 18.26Q53.79 18.38 53.94 18.55L53.94 18.55Q54.36 18.87 54.68 19.07Q54.99 19.28 55.41 19.46L55.41 19.46Q55.64 19.59 55.80 19.64Q55.97 19.70 56.15 19.71Q56.32 19.73 56.51 19.70Q56.70 19.67 56.97 19.60L56.97 19.60Q57.47 19.47 58.03 19.29Q58.59 19.10 59.14 18.86Q59.70 18.62 60.19 18.33Q60.69 18.03 61.05 17.71L61.05 17.71Q61.59 17.29 61.82 16.85Q62.06 16.41 61.99 15.78L61.99 15.78Q61.88 15.25 61.54 14.74Q61.19 14.24 60.65 13.96ZM56.95 12.96L56.95 12.96Q57.15 12.22 57.29 11.56Q57.43 10.91 57.62 10.30L57.62 10.30Q58.23 10.02 58.74 9.88Q59.26 9.74 59.66 9.72Q60.06 9.70 60.31 9.79Q60.56 9.88 60.62 10.07L60.62 10.07Q60.68 10.29 60.45 10.66Q60.23 11.03 59.74 11.45Q59.26 11.86 58.55 12.26Q57.85 12.67 56.95 12.96ZM56.42 15.29L56.42 15.29Q56.98 15.11 57.44 15.04Q57.90 14.98 58.25 15.02Q58.60 15.06 58.81 15.18Q59.02 15.29 59.09 15.43L59.09 15.43Q59.15 15.67 58.95 15.95Q58.74 16.24 58.32 16.53Q57.90 16.81 57.30 17.07Q56.70 17.33 55.97 17.51L55.97 17.51Q56.07 16.95 56.19 16.41Q56.31 15.88 56.42 15.29ZM71.22 8.26L71.22 8.26Q70.74 7.88 70.02 7.62Q69.30 7.35 68.50 7.22L68.50 7.22Q67.89 7.13 67.21 7.32Q66.53 7.52 66.04 7.90L66.04 7.90Q65.31 8.53 64.76 9.32Q64.20 10.11 63.83 10.99Q63.45 11.87 63.25 12.80Q63.06 13.73 63.04 14.63Q63.03 15.53 63.20 16.34Q63.36 17.15 63.70 17.79L63.70 17.79Q63.91 18.19 64.27 18.49Q64.64 18.80 65.02 19.00L65.02 19.00Q65.48 19.24 66.04 19.36Q66.60 19.47 67.13 19.53L67.13 19.53Q67.93 19.61 68.54 19.47Q69.16 19.32 69.72 18.89L69.72 18.89Q70.55 18.16 71.11 17.11Q71.68 16.06 72.01 14.88Q72.34 13.69 72.42 12.50Q72.51 11.30 72.35 10.28L72.35 10.28Q72.24 9.66 72.00 9.18Q71.75 8.69 71.22 8.26ZM68.96 9.66L68.96 9.66Q69.24 9.74 69.38 10.24Q69.51 10.74 69.51 11.44L69.51 11.44Q69.51 12.12 69.40 12.91Q69.29 13.71 69.10 14.36L69.10 14.36Q68.89 15.16 68.61 15.84Q68.32 16.52 68.00 16.98Q67.68 17.44 67.35 17.67Q67.03 17.89 66.74 17.79L66.74 17.79Q66.42 17.70 66.25 17.26Q66.08 16.83 66.05 16.22Q66.02 15.61 66.11 14.90Q66.19 14.20 66.39 13.54L66.39 13.54Q66.58 12.87 66.90 12.14Q67.21 11.42 67.58 10.84Q67.94 10.25 68.31 9.90Q68.67 9.56 68.96 9.66ZM77.60 11.02L77.60 11.02Q77.31 10.30 77.03 9.65Q76.76 9.00 76.54 8.43L76.54 8.43Q76.34 8.02 76.08 7.78Q75.81 7.53 75.32 7.46L75.32 7.46Q75.08 7.45 74.86 7.44Q74.63 7.43 74.42 7.43L74.42 7.43L74.02 7.43Q73.91 7.43 73.81 7.43L73.81 7.43Q73.71 7.43 73.60 7.45L73.60 7.45Q73.19 7.50 73.11 7.67Q73.02 7.83 73.19 8.27L73.19 8.27Q73.37 8.72 73.63 9.31Q73.89 9.90 74.19 10.57Q74.49 11.24 74.83 11.96Q75.17 12.68 75.50 13.40L75.50 13.40Q74.51 14.66 73.69 15.80Q72.87 16.94 72.38 17.72L72.38 17.72Q72.27 17.89 72.23 18.02Q72.20 18.14 72.20 18.24L72.20 18.24Q72.21 18.37 72.35 18.55Q72.49 18.73 72.69 18.92Q72.90 19.11 73.12 19.28Q73.35 19.45 73.54 19.56L73.54 19.56Q74.09 19.91 74.42 19.49L74.42 19.49Q74.91 18.90 75.52 18.09Q76.13 17.29 76.89 16.38L76.89 16.38Q77.34 17.33 77.66 17.98Q77.99 18.63 78.16 18.87L78.16 18.87Q78.40 19.21 78.61 19.36Q78.82 19.50 79.20 19.54L79.20 19.54Q79.95 19.61 80.65 19.54L80.65 19.54Q81.27 19.46 80.95 18.97L80.95 18.97Q80.54 18.03 80.03 16.82Q79.52 15.61 78.93 14.21L78.93 14.21Q79.98 12.98 80.95 11.85Q81.93 10.72 82.68 9.84L82.68 9.84Q82.94 9.55 83.01 9.23Q83.08 8.90 82.84 8.53L82.84 8.53Q82.64 8.22 82.33 7.86Q82.03 7.50 81.70 7.25L81.70 7.25Q81.55 7.15 81.40 7.10Q81.24 7.04 81.09 7.04L81.09 7.04Q80.79 7.04 80.51 7.36L80.51 7.36Q79.93 8.02 79.19 8.96Q78.46 9.90 77.60 11.02Z"></path></g><!----><g data-v-423bf9ae="" id="bfef8db6-55de-45e8-9cc7-c3024a08d615" transform="matrix(1.6069637537002563,0,0,1.6069637537002563,-3.212780714035034,-2.2101690769195557)" stroke="none" fill="#118B01"><path d="M48.559 11.137a73.15 73.15 0 00-21.268 21.2c0 .009-.013.015-.019.024v.014A31.153 31.153 0 0022.98 42.2a1 1 0 01-.98.8 1 1 0 01-.979-.8c-1.069-5.34-6.297-19.937-15.647-31a.459.459 0 00-.349-.174 1.134 1.134 0 00-.8.419l-2.057 2.126a.615.615 0 00-.023.819c8.388 10.574 16.322 29.6 17.686 42.408A1.333 1.333 0 0021.15 58a1.315 1.315 0 001.288-1c2.143-8.941 5.9-20.1 8.922-24.121a1 1 0 01.8-.4h.017c.354 0 9.41-.053 14.388-4.445 2.856-2.519 3.6-5.242 5.244-11.21.33-1.2.693-2.521 1.115-3.99a21.168 21.168 0 015.043-9.346.1.1 0 00.033-.109.105.105 0 00-.087-.075C53.265 2.244 41.616.29 33.965 5.05c-3.7 2.3-11.537 9.183-7.2 24.443A74.931 74.931 0 0147.486 9.449a1 1 0 011.073 1.688z"></path></g><!----></svg>